<?xml version="1.0" encoding="UTF-8" standalone="no"?>
<!-- Created with Inkscape (http://www.inkscape.org/) -->

<svg
   width="250.00002"
   height="250.00002"
   viewBox="0 0 66.145837 66.145837"
   version="1.1"
   id="svg5"
   xmlns="http://www.w3.org/2000/svg"
   xmlns:svg="http://www.w3.org/2000/svg">
  <defs
     id="defs2" />
  <g
     id="layer1">
    <path
       style="fill:none;stroke:#e1e9ef;stroke-width:2.64583;stroke-dasharray:none;stroke-opacity:1"
       d="m 9.1413208,18.520832 c 0,10.099471 0,20.198942 0,30.298412 7.9573472,5.049103 15.9146982,10.098203 23.8720472,15.147306 7.957348,-5.049103 15.914699,-10.098203 23.872046,-15.147306 1e-6,-10.09947 0,-20.198941 0,-30.298412 C 48.928067,13.47173 40.970716,8.4226314 33.013368,3.3735294 25.056019,8.4226314 17.098668,13.47173 9.1413208,18.520832 Z"
       id="path140-4" />
    <path
       id="path140-5"
       style="fill:none;stroke:#3944bc;stroke-width:2.64506;stroke-dasharray:none;stroke-opacity:1"
       d="m 44.984954,25.929283 v -1.51722 L 33.0756,15.752178 c -3.969776,2.886623 -7.939578,5.773264 -11.909356,8.659885 v 0 8.660971" />
    <path
       id="path3947"
       style="display:none;fill:none;stroke:#000000;stroke-width:2.64583;stroke-dasharray:none"
       d="m 20.993885,33.072915 v 8.657511 l 12.076927,8.656426 c 4.025637,-2.885473 8.051288,-5.770954 12.076926,-8.656426 v -8.657511" />
    <rect
       style="fill:#3944bc;fill-opacity:1;stroke:#e1e9ef;stroke-width:0;stroke-linecap:butt;stroke-linejoin:miter;stroke-dasharray:none;stroke-opacity:1"
       id="rect3950"
       width="3.4086728"
       height="9.9626303"
       x="25.565063"
       y="49.01812"
       transform="matrix(0.77620579,-0.63047964,0,1,0,0)" />
    <path
       style="fill:#000000;fill-opacity:1;stroke:#3944bc;stroke-width:2.64583;stroke-linecap:butt;stroke-linejoin:miter;stroke-dasharray:none;stroke-opacity:1"
       d="m 39.687497,15.874999 c 0,5.291666 0,5.291666 0,5.291666"
       id="path4708" />
    <circle
       style="fill:none;fill-opacity:1;stroke:#3944bc;stroke-width:0.529167;stroke-linecap:butt;stroke-linejoin:miter;stroke-dasharray:none;stroke-opacity:1"
       id="path4968"
       cx="26.45833"
       cy="27.781248"
       r="1.3229165" />
    <rect
       style="fill:#3944bc;fill-opacity:1;stroke:#e1e9ef;stroke-width:0;stroke-linecap:butt;stroke-linejoin:miter;stroke-dasharray:none;stroke-opacity:1"
       id="rect3950-5"
       width="2.9655867"
       height="7.6563239"
       x="-51.897797"
       y="1.1814535"
       transform="matrix(-0.89217814,-0.4516837,0,1,0,0)" />
    <circle
       style="fill:none;fill-opacity:1;stroke:#e1e9ef;stroke-width:0.529167;stroke-linecap:butt;stroke-linejoin:miter;stroke-dasharray:none;stroke-opacity:1"
       id="path4968-8"
       cx="25.135416"
       cy="31.749998"
       r="1.3229165" />
    <circle
       style="fill:none;fill-opacity:1;stroke:#e1e9ef;stroke-width:0.529167;stroke-linecap:butt;stroke-linejoin:miter;stroke-dasharray:none;stroke-opacity:1"
       id="path4968-6"
       cx="30.427082"
       cy="23.812498"
       r="1.3229165" />
    <circle
       style="fill:none;fill-opacity:1;stroke:#e1e9ef;stroke-width:0.529167;stroke-linecap:butt;stroke-linejoin:miter;stroke-dasharray:none;stroke-opacity:1"
       id="path4968-6-3"
       cx="39.687496"
       cy="26.458332"
       r="1.3229165" />
    <circle
       style="fill:none;fill-opacity:1;stroke:#e1e9ef;stroke-width:0.529167;stroke-linecap:butt;stroke-linejoin:miter;stroke-dasharray:none;stroke-opacity:1"
       id="path4968-6-3-9"
       cx="38.364582"
       cy="31.749998"
       r="1.3229165" />
    <rect
       style="display:none;fill:#000000;fill-opacity:1;stroke:#000000;stroke-width:0;stroke-linecap:butt;stroke-linejoin:miter;stroke-dasharray:none"
       id="rect5164"
       width="16.154903"
       height="2.645833"
       x="24.232359"
       y="31.105927"
       transform="matrix(0.81889472,-0.57394376,0,1,0,0)" />
    <rect
       style="fill:#e1e9ef;fill-opacity:1;stroke:#e1e9ef;stroke-width:0;stroke-linecap:butt;stroke-linejoin:miter;stroke-dasharray:none;stroke-opacity:1"
       id="rect5166"
       width="23.849218"
       height="2.645833"
       x="15.899478"
       y="29.986109"
       transform="matrix(0.8320503,-0.55470019,0,1,0,0)" />
    <rect
       style="fill:#e1e9ef;fill-opacity:1;stroke:#e1e9ef;stroke-width:0;stroke-linecap:butt;stroke-linejoin:miter;stroke-dasharray:none;stroke-opacity:1"
       id="rect5168"
       width="3.2535331"
       height="24.660875"
       x="16.267662"
       y="31.309258"
       transform="matrix(0.81321844,-0.58195856,0,1,0,0)" />
    <path
       id="path5975"
       style="fill:none;fill-opacity:1;stroke:#e1e9ef;stroke-width:0.529167;stroke-linecap:butt;stroke-linejoin:miter;stroke-dasharray:none;stroke-opacity:1"
       d="m 31.749997,23.812498 1.322917,1.322917 v 7.937499 l 1e-6,22.489583 23.812499,-14.882812" />
    <path
       id="path5967"
       style="fill:none;fill-opacity:1;stroke:#3944bc;stroke-width:0.529167;stroke-linecap:butt;stroke-linejoin:miter;stroke-dasharray:none;stroke-opacity:1"
       d="M 31.749997,33.072914 V 58.20833 L 56.885414,42.498694 m -25.135417,-9.42578 v -3.96875 L 30.42708,27.781247 h -2.645833" />
    <path
       id="path5955"
       style="fill:none;fill-opacity:1;stroke:#e1e9ef;stroke-width:0.529167;stroke-linecap:butt;stroke-linejoin:miter;stroke-dasharray:none;stroke-opacity:1"
       d="M 38.36458,26.458332 H 37.041664 L 34.39583,29.104164 V 52.916663 L 56.885413,38.860675" />
    <path
       id="path5950"
       style="fill:none;fill-opacity:1;stroke:#e1e9ef;stroke-width:0.529167;stroke-linecap:butt;stroke-linejoin:miter;stroke-dasharray:none;stroke-opacity:1"
       d="m 37.041664,31.749997 -1.322917,1.322917 V 50.27083 L 56.885414,37.041663" />
    <path
       id="path5945"
       style="fill:none;fill-opacity:1;stroke:#e1e9ef;stroke-width:0.529167;stroke-linecap:butt;stroke-linejoin:miter;stroke-dasharray:none;stroke-opacity:1"
       d="m 26.458332,31.749997 h 2.645832 l 1.322916,1.322917 V 60.854163 L 56.885413,44.317706" />
    <path
       style="fill:none;stroke:#3944bf;stroke-width:2.64583;stroke-dasharray:none;stroke-opacity:1"
       d="m 9.1413208,18.520832 c 0,10.099471 0,20.198942 0,30.298412 7.9573472,5.049103 15.9146982,10.098203 23.8720472,15.147306 7.957348,-5.049103 15.914699,-10.098203 23.872046,-15.147306 1e-6,-10.09947 0,-20.198941 0,-30.298412 C 48.928067,13.47173 40.970716,8.4226314 33.013368,3.3735294 25.056019,8.4226314 17.098668,13.47173 9.1413208,18.520832 Z"
       id="path5958" />
  </g>
</svg>
